<svg id="Layer_1"  xmlns="http://www.w3.org/2000/svg" viewBox="0 0 70.76 68.31"><title>CurvedStar4</title><path d="M94.65,148.41l-3.77,10.5a8.2,8.2,0,0,1-7.72,5.43H79.49a8.21,8.21,0,0,0-5,14.72l10.17,7.81a8.2,8.2,0,0,1,2,10.84h0a8.21,8.21,0,0,0,10.54,11.72L116,200.36a8.16,8.16,0,0,1,6.67-.2l7,2.88a8.2,8.2,0,0,0,10.57-11l-4.52-9.87a8.21,8.21,0,0,1,1.58-9.14l1.27-1.3a8.2,8.2,0,0,0-7.26-13.81l-8.26,1.41a8.22,8.22,0,0,1-8.36-3.78l-5.36-8.67A8.2,8.2,0,0,0,94.65,148.41Z" transform="translate(-70.77 -142.47)" fill="#fff" stroke="#000" stroke-miterlimit="10"/></svg>