<svg id="Layer_1"  xmlns="http://www.w3.org/2000/svg" viewBox="0 0 78.39 73.77"><title>CurvedStar3</title><path d="M92.17,132.05l-5.68,15.82A6.17,6.17,0,0,1,80.68,152H69.6A6.17,6.17,0,0,0,65.84,163L82.23,175.6a6.18,6.18,0,0,1,1.48,8.16L79,191.27A6.17,6.17,0,0,0,87,200.09l24.81-12a6.19,6.19,0,0,1,6.64.82l4.24,3.54a6.17,6.17,0,0,0,10.06-5.62l-2.77-19.17a6.14,6.14,0,0,1,1.68-5.19l7.41-7.62a6.17,6.17,0,0,0-5.46-10.39l-15.76,2.68a6.14,6.14,0,0,1-6.28-2.84l-8.3-13.43A6.17,6.17,0,0,0,92.17,132.05Z" transform="translate(-62.91 -127.46)" fill="#fff" stroke="#000" stroke-miterlimit="10"/></svg>