<svg id="Layer_1" xmlns="http://www.w3.org/2000/svg" viewBox="0 0 71.94 69.21"><title>CurvedStar2</title><path d="M93.11,133.21,89,144.59a7.88,7.88,0,0,1-7.41,5.21H76.74A7.87,7.87,0,0,0,72,163.92l11.19,8.59A7.87,7.87,0,0,1,85,182.91l-.77,1.23a7.87,7.87,0,0,0,10.11,11.24L99,189.5a14.79,14.79,0,0,1,16.73-4.76,24,24,0,0,1,5.68,2.73h0a7.87,7.87,0,0,0,12.83-7.17l-2-14a7.86,7.86,0,0,1,2.15-6.62l3.19-3.28a7.87,7.87,0,0,0-7-13.25l-9.49,1.61a7.86,7.86,0,0,1-8-3.62l-5.84-9.45A7.88,7.88,0,0,0,93.11,133.21Z" transform="translate(-68.35 -127.5)" fill="#fff" stroke="#000" stroke-miterlimit="10"/></svg>