<svg id="Layer_1"  xmlns="http://www.w3.org/2000/svg" viewBox="0 0 74.82 70.11"><title>CurvedStar6</title><path d="M95.12,147.1,90,161.43a7.55,7.55,0,0,1-3.85,4.25l-13.48,6.44a7.53,7.53,0,0,0,1,14l7.62,2.38a7.54,7.54,0,0,1,4.16,11.17h0a7.54,7.54,0,0,0,9.68,10.77l19.78-9.55a7.55,7.55,0,0,1,8.1,1l.84.7a7.54,7.54,0,0,0,12.28-6.87l-2.17-15a7.51,7.51,0,0,1,2.06-6.34l4-4.14a7.53,7.53,0,0,0-6.67-12.68l-10.72,1.82a7.52,7.52,0,0,1-7.68-3.47l-6.32-10.23A7.54,7.54,0,0,0,95.12,147.1Z" transform="translate(-67.86 -141.61)" fill="#fff" stroke="#000" stroke-miterlimit="10"/></svg>