<svg id="Layer_1"  xmlns="http://www.w3.org/2000/svg" viewBox="0 0 73.31 72.45"><title>CurvedStar5</title><path d="M95.14,147.05l-4.42,12.32a7.52,7.52,0,0,1-7.07,5h-6.2a7.51,7.51,0,0,0-4.57,13.47L87.49,189a7.52,7.52,0,0,1,2.93,6.25L90,205.71A7.52,7.52,0,0,0,102.1,212l12.39-9.53a7.52,7.52,0,0,1,9.39.19h0a7.51,7.51,0,0,0,12.24-6.85l-2.18-15.06A7.47,7.47,0,0,1,136,174.4l4.08-4.2a7.51,7.51,0,0,0-6.64-12.65l-10.82,1.85a7.52,7.52,0,0,1-7.65-3.46l-6.36-10.3A7.51,7.51,0,0,0,95.14,147.05Z" transform="translate(-69.42 -141.58)" fill="#fff" stroke="#000" stroke-miterlimit="10"/></svg>