<svg id="Layer_1"  xmlns="http://www.w3.org/2000/svg" viewBox="0 0 71.94 69.21"><title>CurvedStar1</title><path d="M93.11,138.07,89,149.44a7.89,7.89,0,0,1-7.41,5.22H76.74A7.87,7.87,0,0,0,72,168.77l11.19,8.59A7.87,7.87,0,0,1,85,187.76L84.26,189a7.87,7.87,0,0,0,10.11,11.25l18.55-9a7.85,7.85,0,0,1,8.46,1h0a7.87,7.87,0,0,0,12.83-7.18l-2-14a7.86,7.86,0,0,1,2.15-6.62l3.19-3.28a7.87,7.87,0,0,0-7-13.25l-9.49,1.62a7.88,7.88,0,0,1-8-3.63l-5.84-9.45A7.87,7.87,0,0,0,93.11,138.07Z" transform="translate(-68.35 -132.35)" fill="#fff" stroke="#000" stroke-miterlimit="10"/></svg>