<svg id="Слой_1"  xmlns="http://www.w3.org/2000/svg" viewBox="0 0 119.23 132.71"><title>triangleIcecream</title><polygon points="59.76 131.67 117.89 24.93 1.33 24.93 59.76 131.67" fill="#e09865" stroke="#1d1d1b" stroke-miterlimit="10"/><path d="M244.34,454.34" transform="translate(-238.59 -357.33)" fill="#df0917"/><polygon points="108.28 31.97 60.69 120.23 69.79 38.28 108.28 31.97" fill="#cb895c"/><line x1="28.65" y1="48.23" x2="47.89" y2="84.62" fill="none" stroke="#432918" stroke-linecap="round" stroke-miterlimit="10"/><line x1="31.3" y1="35.62" x2="57.85" y2="86.72" fill="none" stroke="#432918" stroke-linecap="round" stroke-miterlimit="10"/><line x1="28.58" y1="60.27" x2="42.06" y2="41.61" fill="none" stroke="#432918" stroke-linecap="round" stroke-miterlimit="10"/><line x1="38.27" y1="75.77" x2="56.85" y2="50.6" fill="none" stroke="#432918" stroke-linecap="round" stroke-miterlimit="10"/><line x1="40.67" y1="86.34" x2="54.46" y2="67.65" fill="none" stroke="#432918" stroke-linecap="round" stroke-miterlimit="10"/><line x1="32.81" y1="68.05" x2="46.61" y2="49.36" fill="none" stroke="#432918" stroke-linecap="round" stroke-miterlimit="10"/><line x1="48.68" y1="51.45" x2="54.98" y2="63.35" fill="none" stroke="#432918" stroke-linecap="round" stroke-miterlimit="10"/><line x1="88.2" y1="58.55" x2="95.38" y2="42.14" fill="none" stroke="#432918" stroke-linecap="round" stroke-miterlimit="10"/><line x1="81.92" y1="61.48" x2="92.2" y2="38.57" fill="none" stroke="#432918" stroke-linecap="round" stroke-miterlimit="10"/><line x1="93.2" y1="55.02" x2="80.02" y2="56.54" fill="none" stroke="#432918" stroke-linecap="round" stroke-miterlimit="10"/><line x1="95.65" y1="47.59" x2="77.71" y2="49.51" fill="none" stroke="#432918" stroke-linecap="round" stroke-miterlimit="10"/><line x1="99.03" y1="43.77" x2="85.72" y2="45.19" fill="none" stroke="#432918" stroke-linecap="round" stroke-miterlimit="10"/><line x1="94.68" y1="51.48" x2="81.37" y2="52.9" fill="none" stroke="#432918" stroke-linecap="round" stroke-miterlimit="10"/><line x1="81.38" y1="51.68" x2="83.73" y2="46.31" fill="none" stroke="#432918" stroke-linecap="round" stroke-miterlimit="10"/><path d="M240,386.55c-3.16-2.78,3.1-9.3,4.21-10.46,16.42-17.13,86.95-23,107.41-5,3,2.65,7.6,8.15,4.91,10.71-2.41,2.29-8.44.06-20,1.66-10.4,1.44-10.08,3.86-17.91,4.28-10.93.59-13.55-4.05-22.81-2.61-6.39,1-13.2,4.44-13.34,7.85-.08,2.08,2.36,3.22,1.4,5.47-.76,1.79-3.3,3.39-4.91,3.09-2-.36-2.3-3.49-2.46-5-.45-4.3,1.68-5.5.35-7.14-1.84-2.28-7.87-2.34-12.28-2.38-6.16-.06-7.55,1-14.39,1C245,388,241.56,388,240,386.55Z" transform="translate(-238.59 -357.33)" fill="#eb5c84" stroke="#1d1d1b" stroke-miterlimit="10"/><path d="M242.06,377.19c-.78-1.28,9.85-8.47,20.78-12.94,30-12.3,60.92-3.6,70.17-1,5.11,1.44,23.85,6.71,23.52,12.61-.09,1.6-1.61,3.56-3.14,3.65-2.3.13-3.2-4.06-6.66-7-5.92-5-14.82-3.79-16.07-3.65-2.92.34-5.93,1.27-5.88,2,.06.92,4.93.41,9.4,3.32,1.17.75,3.67,2.38,3.92,5a4.68,4.68,0,0,1-2,4.31c-2.6,1.67-6.94.59-8.23-1.33s1.29-3.85,0-5.64-4.38-.29-9.41-2.32c-1.7-.69-1.31-.85-6.66-3.65-3.21-1.68-3.87-1.89-4.7-2-2.67-.32-6.07.61-7.45,2.65-1,1.52-.15,2.47-1.18,3.32-1.77,1.47-6.9.7-8.62-1.66-1.09-1.48,0-2.47-1.18-5.64-.57-1.56-.94-2.55-2-3.32-2.67-2-8.32-1.38-11,1-1.22,1.1-.89,1.75-2.74,3.65a18.46,18.46,0,0,1-3.92,3,33.48,33.48,0,0,1-8.62,3.65c-2.9.75-3.26.43-11,1.32C243.48,377.22,242.3,377.58,242.06,377.19Z" transform="translate(-238.59 -357.33)" fill="#fde5d2" stroke="#1d1d1b" stroke-miterlimit="10"/></svg>