<svg id="Layer_1" xmlns="http://www.w3.org/2000/svg" viewBox="0 0 1128.57 2436"><title>back</title><rect x="2" width="1124" height="2038" fill="#c7e5f0"/><path d="M5,1778.11c0,152,493,121.54,1004.84,121.54,41.18,0,113.59-10.12,113.59-10.12s3.32-406.13.7-530.13c-.35-16.18-72.84-10.25-114.29-10.25C498,1349.15,5,1626.09,5,1778.11Z" transform="translate(1)" fill="#8cc63f"/><path d="M1126,1805s-290,53-457,57C328.41,1870.16-1,1730-1,1730l1,577H1124Z" transform="translate(1)" fill="#c1e1a2"/><path d="M348,1973c-242.62-10.8-348-25-348-25v398H1125l1-213s-1-69,0-102C1130.06,1897,743.91,1990.63,348,1973Z" transform="translate(1)" fill="#e4e36d"/><path d="M0,1427.09s256.11,82.46,486.22,129.29c257,52.29,638.28-66.06,638.28-66.06L1125,2436H-.5Z" transform="translate(1)" fill="#b6ca44"/><path d="M1126,141,1,195V0S334.11,25.39,462,51C734.93,105.64,1126,141,1126,141Z" transform="translate(1)" fill="#daf5fe"/><path d="M1127.57,2436H2.57V1805.55a2855.37,2855.37,0,0,1,1125,0Z" transform="translate(1)" fill="#8cc63f" fill-rule="evenodd"/><rect x="28.43" y="1275.77" width="91.26" height="195.76" fill="#b6ca44"/><polygon points="17.74 1275.77 130.39 1275.77 74.06 1237.96 17.74 1275.77" fill="#b6ca44"/><rect x="144.52" y="1339.99" width="91.26" height="195.76" transform="translate(188.38 -12.52) rotate(7.42)" fill="#b6ca44"/><polygon points="147.94 1333.53 259.65 1348.09 208.68 1303.32 147.94 1333.53" fill="#b6ca44"/><rect x="934.11" y="1290.34" width="47.78" height="87.59" transform="matrix(1, -0.07, 0.07, 1, -94.25, 73.84)" fill="#8cc63f"/><polygon points="926.38 1292.62 985.2 1288.29 954.55 1273.59 926.38 1292.62" fill="#8cc63f"/><rect x="1060.6" y="1273.39" width="47.78" height="87.59" transform="translate(158.03 -114.92) rotate(6.54)" fill="#8cc63f"/><polygon points="1061.18 1270.32 1119.78 1277.03 1092.4 1256.87 1061.18 1270.32" fill="#8cc63f"/><rect x="1003.81" y="1315.13" width="30.88" height="54.36" fill="#8cc63f"/><polygon points="1000.19 1315.13 1038.3 1315.13 1019.25 1304.63 1000.19 1315.13" fill="#8cc63f"/></svg>