<svg id="Слой_1"  xmlns="http://www.w3.org/2000/svg" viewBox="0 0 315.7 189.42"><title>floor</title><path d="M89.5,55.29V244.71H403.32V55.29ZM349.87,217.15h-205V79.35h205Z" transform="translate(-89.18 -55.29)" fill="#ffd9a3"/><path d="M358.93,224.66H137.29" transform="translate(-89.18 -55.29)" fill="#b78256" stroke="#8c6239" stroke-miterlimit="10" stroke-width="6.29"/><rect width="3.77" height="189.42" fill="#42210b"/><rect x="311.94" width="3.77" height="189.42" fill="#42210b"/><rect x="55.86" y="23.99" width="204.62" height="137.65" fill="none" stroke="#42210b" stroke-miterlimit="10" stroke-width="5.99"/><rect x="60.57" y="29.04" width="195.13" height="128.18" fill="none" stroke="#cf865b" stroke-miterlimit="10" stroke-width="9.99"/><rect x="65.6" y="34.1" width="185.06" height="118.07" fill="none" stroke="#42210b" stroke-miterlimit="10" stroke-width="5.99"/><polygon points="65.6 36.99 96.18 36.99 77.18 114.16 83.28 152.43 65.6 151.2 65.6 36.99" fill="#b4cfff" stroke="#000" stroke-miterlimit="10"/><path d="M154.79,169a12.14,12.14,0,0,0,5.19,1.66,12.36,12.36,0,0,0,6.39-1.18" transform="translate(-89.18 -55.29)" fill="#b4cfff" stroke="#000" stroke-linecap="round" stroke-miterlimit="10" stroke-width="0.5"/><polygon points="247.94 36.99 217.37 36.99 236.36 114.16 230.27 152.43 247.94 151.2 247.94 36.99" fill="#b4cfff" stroke="#000" stroke-miterlimit="10"/><path d="M337.12,169a12.14,12.14,0,0,1-5.19,1.66,12.36,12.36,0,0,1-6.39-1.18" transform="translate(-89.18 -55.29)" fill="#b4cfff" stroke="#000" stroke-linecap="round" stroke-miterlimit="10" stroke-width="0.5"/></svg>