<svg xmlns="http://www.w3.org/2000/svg" viewBox="0 0 540.63 143.22"><g id="Layer_2"><g id="Layer_1-2" ><rect x="121.74" y="21.55" width="45.06" height="61" fill="#cf865b" stroke="#42210b" stroke-miterlimit="10" stroke-width="4.16"/><rect x="112.73" y="5.61" width="61" height="15.94" fill="#42210b" stroke="#42210b" stroke-miterlimit="10" stroke-width="4.16"/><polygon points="270.24 8.8 21.14 140.61 519.34 140.61 270.24 8.8" fill="#ffd9a3"/><polygon points="535.32 132.71 286.27 10.51 286.28 10.51 270.19 2.61 5.32 132.57 21.41 140.47 270.18 18.41 519.22 140.61 535.32 132.71" fill="#fff" stroke="#42210b" stroke-miterlimit="10" stroke-width="4.68"/><circle cx="270.38" cy="77.1" r="29.35" fill="#39bbbd"/><circle cx="270.29" cy="77.19" r="33.56" fill="none" stroke="#cf865b" stroke-miterlimit="10" stroke-width="9.71"/><circle cx="270.48" cy="77.45" r="38.25" fill="none" stroke="#42210b" stroke-miterlimit="10" stroke-width="5.46"/><path d="M260.73,84.61c0,8,11.18,18,4,18s-20-9-20-17-3.18-17,4-17S260.73,76.6,260.73,84.61Z" fill="#fff"/></g></g></svg>