<svg id="Слой_1"  xmlns="http://www.w3.org/2000/svg" viewBox="0 0 1128.06 2436.5"><title>background-wheredoilive</title><rect x="2.06" width="1126" height="2436" fill="#b1e7f2"/><path d="M1128.55,2435.86H2.55V601.49a717.26,717.26,0,0,1,86-63.41c390.87-244.82,883-14.08,955,19.68,40.23,18.86,71.23,36,85,43.73Z" transform="translate(-0.5 0.14)" fill="#aae492"/><path d="M1128.05,2436.36H2.05V794.64q24.66-18.54,50-35.52c232.51-155.6,588.66-262.21,1076,35.52Z" transform="translate(-0.5 0.14)" fill="#a7cd00"/><path d="M119.3,714.57l-9.66-53.63L.5,696.06,78,554.26l-68.94,23,55.31-90.57L22.62,498.28l37.75-111,79.89,78.44-41.2,10.67L211.51,528.6l-89.76,12.9L258.85,617l-115.8,34.7a241.58,241.58,0,0,0,7.52,33.65C156.1,703.87,119.3,714.57,119.3,714.57Z" transform="translate(-0.5 0.14)" fill="#a7cd00" fill-rule="evenodd"/><path d="M227.71,676.45l-3-54.42L112.08,643.51l94.31-131.22-71.23,14.36,66-83.1-42.87,6.38,51.07-105.55L279,432l-42.2,5.55L342,503.19,251.37,505,378.18,596.7,259,616.93a242,242,0,0,0,3.33,34.33C265.55,670.34,227.71,676.45,227.71,676.45Z" transform="translate(-0.5 0.14)" fill="#a7cd00" fill-rule="evenodd"/><path d="M856.18,721.69l14.7-63.33L740.45,646.74,887.11,526.68l-82.76-6.45,99.75-74-49.05-6.48,90.83-104.56L993.2,458.05l-48-7.22,93.5,109.05-99.88-27.1,108.54,145.91-137.2-15.15a301,301,0,0,0-7.7,40.42C899.64,726.87,856.18,721.69,856.18,721.69Z" transform="translate(-0.5 0.14)" fill="#a7cd00" fill-rule="evenodd"/><path d="M117,986.32" transform="translate(-0.5 0.14)" fill="none" stroke="#000" stroke-miterlimit="10" stroke-width="6"/><path d="M203.55,270.86" transform="translate(-0.5 0.14)" fill="#a7cd00" stroke="#000" stroke-miterlimit="10" stroke-width="8"/><path d="M333.55,621.68" transform="translate(-0.5 0.14)" fill="#a7cd00" stroke="#000" stroke-miterlimit="10" stroke-width="8"/><path d="M399.55,1069.68" transform="translate(-0.5 0.14)" fill="#a7cd00" stroke="#000" stroke-miterlimit="10" stroke-width="8"/><path d="M977.55,1213.68" transform="translate(-0.5 0.14)" fill="#a7cd00" stroke="#000" stroke-miterlimit="10" stroke-width="8"/><path d="M933.55,654.68" transform="translate(-0.5 0.14)" fill="#a7cd00" stroke="#000" stroke-miterlimit="10" stroke-width="8"/><path d="M1128.55,2430.86H3.55V1922.94a3531.67,3531.67,0,0,1,1125,0Z" transform="translate(-0.5 0.14)" fill="#77c810" fill-rule="evenodd"/><path d="M431.84,436.6l-.72-24.4L366,421l56.62-58.07-41.2,5.89L420.88,332l-24.75,2.53,31.3-46.9,38.42,39.81-24.35,2.16,59.24,30.22-52.13.1L519.78,402l-68.86,8.14a84.88,84.88,0,0,0,1.28,15.41C453.7,434.16,431.84,436.6,431.84,436.6Z" transform="translate(-0.5 0.14)" fill="#aae492" fill-rule="evenodd"/><path d="M648.65,452.24l4.65-24-65.45-5.76,68-44.22L614.35,375l46.56-27.17-24.7-3L677,306l28.74,47.28L681.56,350l51.16,42.48-50.89-11.34L742,437.82l-69-7.17A84.11,84.11,0,0,0,670.94,446C670.51,454.66,648.65,452.24,648.65,452.24Z" transform="translate(-0.5 0.14)" fill="#aae492" fill-rule="evenodd"/></svg>