<svg id="Layer_1"  xmlns="http://www.w3.org/2000/svg" viewBox="0 0 152.47 86.13"><title>Cloud</title><path d="M213.61,100a19.43,19.43,0,0,0-15.34-19c.13-1.37.2-2.76.2-4.17a42.57,42.57,0,0,0-79.84-20.56A31.73,31.73,0,0,0,82.34,80.62c-.26,0-.52,0-.79,0a19.41,19.41,0,1,0,0,38.82,19.07,19.07,0,0,0,4.24-.48h22.08a31.41,31.41,0,0,0,10.94,0h30.71a42.71,42.71,0,0,0,12.77,0H190a19,19,0,0,0,8.48,0h0A19.41,19.41,0,0,0,213.61,100Z" transform="translate(-61.64 -33.77)" fill="#fff" stroke="#000" stroke-miterlimit="10"/></svg>