<svg id="Layer_1" xmlns="http://www.w3.org/2000/svg" viewBox="0 0 332.56 99.72"><title>Grass</title><path d="M.5,516.54H332.06v-51l-30.62-8.75,4.9-29.87-10.21,24,4.49-33.51-7.76,29.14-5.31-25.5,1.23,31.33-30.36-7.66a58.55,58.55,0,0,0-25.9-.7l-38.6,7.63L196.09,432l-6.94,16,1.63-30.6-6.12,27-5.31-8.75,2,16.76-49.25,13.12c-3.62,1-13.25,2.64-16.85,1.45l.36-3.64,1.63-14.57-4.9,10.93-2.45-9.47-1.63,10.2L105,453.15l1.74,13.26-40.94,9.33,3.27-27-7.35,24,2.86-41.53L57.67,467,54.4,454.61V467l-6.94-8.74L53.17,475l-15-1.95a132,132,0,0,0-37,.38l-.74.11Z" transform="translate(0 -417.32)" fill="#fff" stroke="#000" stroke-miterlimit="10"/><path d="M88.41,84.73" transform="translate(0 -417.32)" fill="#fff" stroke="#000" stroke-miterlimit="10"/></svg>