<svg id="Layer_1" xmlns="http://www.w3.org/2000/svg" viewBox="0 0 22.92 133.49"><title>Pencil</title><path d="M61.39,42.14l5.56,19-3.19-1.18A13.36,13.36,0,0,1,59.15,57L58,55.91,57,55a21.72,21.72,0,0,1-9.19,5.89l-.77.25,5.56-19Z" transform="translate(-45.53 -25.62)" fill="#c59d00"/><line x1="7.06" y1="16.52" x2="15.86" y2="16.52" fill="none" stroke="#000" stroke-linejoin="round" stroke-width="3"/><line x1="11.46" y1="131.99" x2="11.46" y2="31.32" fill="none" stroke="#000" stroke-linejoin="round" stroke-width="3"/><polyline points="1.5 35.49 7.06 16.52 11.46 1.5 15.86 16.52 21.42 35.49" fill="none" stroke="#000" stroke-linejoin="round" stroke-width="3"/><path d="M47,154.87V61.11l.77-.25A21.72,21.72,0,0,0,57,55l1,.94L59.15,57a13.36,13.36,0,0,0,4.61,2.89L67,61.11v96.5H47v-2.74" transform="translate(-45.53 -25.62)" fill="none" stroke="#000" stroke-linejoin="round" stroke-width="3"/></svg>