<svg id="Слой_1"  xmlns="http://www.w3.org/2000/svg" viewBox="0 0 135 143.31"><title>squareMilk</title><path d="M348.6,358.16H247.4A16.39,16.39,0,0,0,231,374.55V475.76a16.4,16.4,0,0,0,16.4,16.4H348.6a16.4,16.4,0,0,0,16.4-16.4V374.55A16.39,16.39,0,0,0,348.6,358.16Zm8.44,62a8.3,8.3,0,0,1-8.3,8.29h-2.65a8.3,8.3,0,0,1-8.3-8.29V381a8.3,8.3,0,0,1,8.3-8.29h2.65A8.3,8.3,0,0,1,357,381Z" transform="translate(-230.5 -349.34)" fill="#048dcb" stroke="#1d1d1b" stroke-miterlimit="10"/><path d="M21.07.5h6.36a8.11,8.11,0,0,1,8.11,8.11v.2a0,0,0,0,1,0,0H12.76a0,0,0,0,1,0,0v0A8.31,8.31,0,0,1,21.07.5Z" fill="#0f79ba" stroke="#1d1d1b" stroke-miterlimit="10"/><path d="M283.35,415.15a6.1,6.1,0,0,0-2.55,1.57c-1.66,1.83-1.42,4.7-1.28,6.43.21,2.53,1,3.76.13,5.14-.55.91-1.36,1.18-1.26,1.44.17.44,2.76.07,5.05-1.09a9.42,9.42,0,0,0,4.67-4.35,7.88,7.88,0,0,0,.39-6c-.18-.47-1.12-2.91-3.18-3.31A4.26,4.26,0,0,0,283.35,415.15Z" transform="translate(-230.5 -349.34)" fill="#0f79ba"/><path d="M.89,101.37H132.21a1.87,1.87,0,0,1,1.87,1.87v23.09a16,16,0,0,1-16,16H16.88a16,16,0,0,1-16-16v-25A0,0,0,0,1,.89,101.37Z" fill="#fff"/><path d="M265.36,429.34a4.24,4.24,0,0,0-1.32-2.75,3,3,0,0,0-3-.63c-1.39.74-1.4,3.28-.58,4.72a19.9,19.9,0,0,0,1.72,1.78c1.54,1.52,1.71,1.64,1.94,1.61.94-.15,1.31-2.69,1.31-4.08A5,5,0,0,0,265.36,429.34Z" transform="translate(-230.5 -349.34)" fill="#0f79ba"/><text transform="translate(12.76 53.81) scale(0.86 1)" font-size="35" fill="#fff" font-family="ArialRoundedMTBold, Arial Rounded MT Bold">MILK</text><path d="M266.5,427.88a4.24,4.24,0,0,0-1.32-2.75,3,3,0,0,0-3-.63c-1.39.74-1.4,3.28-.58,4.72a18.46,18.46,0,0,0,1.72,1.78c1.54,1.52,1.71,1.64,1.94,1.61.94-.15,1.31-2.69,1.31-4.08A5.13,5.13,0,0,0,266.5,427.88Z" transform="translate(-230.5 -349.34)" fill="#fff"/><path d="M278.94,439.06a2.11,2.11,0,0,0,.56-1.58,1.78,1.78,0,0,0-1.14-1.44,2.14,2.14,0,0,0-2.28,1.58,13.61,13.61,0,0,0,0,1.37c.07,1.19.1,1.3.22,1.38.5.31,1.75-.51,2.34-1.05C278.82,439.19,278.9,439.09,278.94,439.06Z" transform="translate(-230.5 -349.34)" fill="#0f79ba"/><path d="M277.81,438.39a2.09,2.09,0,0,0,.56-1.58,1.81,1.81,0,0,0-1.14-1.44A2.16,2.16,0,0,0,275,437a13.43,13.43,0,0,0,0,1.36c.07,1.19.1,1.31.22,1.38.5.32,1.75-.51,2.34-1.05Z" transform="translate(-230.5 -349.34)" fill="#fff"/><path d="M281.63,413.69a6.05,6.05,0,0,0-2.55,1.58c-1.66,1.82-1.42,4.69-1.28,6.42.21,2.53,1,3.76.13,5.15-.55.9-1.36,1.17-1.26,1.43.17.44,2.76.07,5.05-1.09a9.37,9.37,0,0,0,4.67-4.35,7.87,7.87,0,0,0,.39-6c-.18-.47-1.12-2.91-3.18-3.31A4.26,4.26,0,0,0,281.63,413.69Z" transform="translate(-230.5 -349.34)" fill="#fff"/><path d="M231.39,433.1v22H364.58v-4s-29.56-7-44.14-7-24.3,7-36.64,4.24-19.71-12.75-27.59-14S231.39,433.1,231.39,433.1Z" transform="translate(-230.5 -349.34)" fill="#fff"/></svg>