<svg id="Слой_1" xmlns="http://www.w3.org/2000/svg" viewBox="0 0 147.24 135"><title>squareChocolate</title><rect x="10.61" y="0.5" width="134" height="134" rx="16.4" fill="#694225" stroke="#1d1d1b" stroke-miterlimit="10"/><path d="M10.76,54.14H144.48a.13.13,0,0,1,.13.13v66.2a14,14,0,0,1-14,14H24.64a14,14,0,0,1-14-14V54.29A.16.16,0,0,1,10.76,54.14Z" fill="#e73049" stroke="#1d1d1b" stroke-miterlimit="10"/><path d="M320.49,430.2" transform="translate(-224.38 -353.5)" fill="#dadada" stroke="#1d1d1b" stroke-miterlimit="10"/><rect x="16.7" y="59.12" width="60.91" height="69.01" fill="#e94a62"/><polygon points="21.56 10.01 53.19 10.01 53.19 42.36 21.56 10.01" fill="#8e6040"/><polygon points="27.29 13.73 21.79 10.01 21.79 42.36 53.42 42.36 48.38 37.53 27.29 13.73" fill="#5f3816"/><rect x="27.06" y="13.73" width="21.08" height="23.8" fill="#694225"/><polygon points="61.68 10.01 93.31 10.01 93.31 42.36 61.68 10.01" fill="#8e6040"/><polygon points="67.41 13.73 61.91 10.01 61.91 42.36 93.53 42.36 88.49 37.53 67.41 13.73" fill="#5f3816"/><rect x="67.18" y="13.73" width="21.08" height="23.8" fill="#694225"/><polygon points="103.16 10.01 134.78 10.01 134.78 42.36 103.16 10.01" fill="#8e6040"/><polygon points="108.89 13.73 103.39 10.01 103.39 42.36 135.01 42.36 129.97 37.53 108.89 13.73" fill="#5f3816"/><rect x="108.66" y="13.73" width="21.08" height="23.8" fill="#694225"/><polygon points="11.36 66.73 11.36 73.05 39.26 66.73 54.94 73.05 80.93 66.05 94.69 69.55 105.77 66.73 130.24 76.7 144 68.71 144 60.82 11.36 60.82 11.36 66.73" fill="#d84055"/><polygon points="5.68 54.72 0.7 63.68 10.66 68.08 36.2 65.34 59.1 70.31 83.32 62.52 103.14 66.66 110.53 62.52 133.42 70.31 146.69 62.52 144.37 48.75 116.5 46.76 103.14 51.4 71.38 48.41 42.84 50.41 32.22 46.76 17.29 48.08 5.68 54.72" fill="#dadada" stroke="#1d1d1b" stroke-miterlimit="10"/><polygon points="32.56 49.16 27.06 54.14 40 54.14 32.56 49.16" fill="#d2d3d5"/><polygon points="37.6 62.15 58.84 68.12 80.08 60.82 58.84 64.47 46.01 60.82 37.6 62.15" fill="#d2d3d5"/><polygon points="143.07 50.49 144.89 59.78 134.78 67.74 143.07 50.49" fill="#bfc0c0"/><polygon points="107.69 53.48 115.32 49.83 130.7 49.83 117.81 53.48 107.69 53.48" fill="#bfc0c0"/></svg>