<svg id="Слой_1"  xmlns="http://www.w3.org/2000/svg" viewBox="0 0 135 143.31"><title>squareJuice</title><rect x="0.5" y="8.81" width="134" height="134" rx="16.4" fill="#ffe569" stroke="#1d1d1b" stroke-miterlimit="10"/><path d="M103.82.5h6.36a8.11,8.11,0,0,1,8.11,8.11v.2a0,0,0,0,1,0,0H95.5a0,0,0,0,1,0,0v0A8.31,8.31,0,0,1,103.82.5Z" fill="#f7a822" stroke="#1d1d1b" stroke-miterlimit="10"/><path d="M298.49,471.05" transform="translate(-230.5 -349.34)" fill="#fff"/><circle cx="52.31" cy="80.57" r="39" fill="#ecd34a"/><path d="M243.86,484.52H353V370.12s-6.31,69.94-15.6,87.2S243.86,484.52,243.86,484.52Z" transform="translate(-230.5 -349.34)" fill="#f7a822"/><circle cx="40.28" cy="79.67" r="34.51" fill="#f69f20"/><path d="M264.42,377.25l.08,3s-.21-1.54.15,5,6.13,6.51,6.13,9.29" transform="translate(-230.5 -349.34)" fill="none" stroke="#683c11" stroke-miterlimit="10" stroke-width="2"/><path d="M278.46,416.93c-.56.38-.62.35-1.28.74-3.85,2.3-10.35,8.35-11,17.2-.39,5.28,1.14,13.55,7,17,7.44,4.43,17.48-1.5,22.24-8.17,7.22-10.11,2.9-22.76,1.91-25.66-2.5-7.34-7.9-14.32-10.8-13.4C283.8,405.53,284.62,412.86,278.46,416.93Z" transform="translate(-230.5 -349.34)" fill="#f9bc68"/><path d="M267.09,386.84c-1.94-2.14-1-7.62,1.45-10.91a15,15,0,0,1,2.37-2.3c2.44-2.1,3.72-2.72,12.94-6.89.49-.22,1.49-.66,2.18-.19a2.46,2.46,0,0,1,.73,1.92c.4,7.62-1.64,11.29-1.64,11.29C281.05,387.1,270,390.12,267.09,386.84Z" transform="translate(-230.5 -349.34)" fill="#a6c840"/></svg>