<svg id="Layer_1"  xmlns="http://www.w3.org/2000/svg" viewBox="0 0 901.99 1060.41"><path d="M863.42,635.54a145.85,145.85,0,0,0-10.1-200.31,150.89,150.89,0,0,0,35.75-98c0-82.57-65.48-149.51-146.27-149.51a144.62,144.62,0,0,0-14.8.76c-33.61-50.07-90-82.92-153.87-82.92-.65,0-1.3,0-2,0C529.75,48.73,462.74,12,387.34,12c-107.5,0-197.93,74.64-224.41,176-2.6-.14-5.22-.22-7.85-.22C74.3,187.77,8.81,254.71,8.81,337.28A151.25,151.25,0,0,0,33.23,420,154.82,154.82,0,0,0,95.44,641.49a155.72,155.72,0,0,0-31.76,95.06c0,64.18,37.63,118.89,90.46,140.05-.28,3.68-.42,7.41-.42,11.16a145.86,145.86,0,0,0,238.63,112.55c39.14,38.09,91.06,61.3,148,61.3,102.13,0,188-74.59,213.2-175.87,2.47.14,5,.22,7.46.22,76.75,0,139-66.89,139-149.41C900,697.6,886.13,662.14,863.42,635.54Z" transform="translate(-3.41 -6.6)" fill="#fff" stroke="#603813" stroke-miterlimit="10" stroke-width="10.8"/></svg>