<svg id="Layer_1" xmlns="http://www.w3.org/2000/svg" viewBox="0 0 1125.43 2436.07"><rect width="1125.43" height="1878.06" fill="#bad6bf"/><line y1="1876.95" x2="1125.43" y2="1876.95" fill="none" stroke="#382001" stroke-miterlimit="10" stroke-width="6"/><rect y="1878.06" width="1125.43" height="558.01" fill="#53a088"/><path d="M122.28,148.07H995.9A38.92,38.92,0,0,1,1034.81,187V2074.36a0,0,0,0,1,0,0H83.37a0,0,0,0,1,0,0V187a38.92,38.92,0,0,1,38.92-38.92Z" fill="#27b6e2"/><path d="M479.88,148H119.18c-20,0-36.24,18.71-36.24,41.78v1884.5H555.82c134.48-220,219.64-546,219.64-909.83C775.46,736.15,657.44,360.29,479.88,148Z" transform="translate(0.43 0.07)" fill="#3dc4f9"/><path d="M197.11,148H119.18c-20,0-36.24,18.71-36.24,41.78v1884.5h47.12s-37-1415.31,0-1884.5c1.81-23,13.55-27.48,18.12-30.29C161.77,151.13,182.61,148,197.11,148Z" transform="translate(0.43 0.07)" fill="#abffff" opacity="0.53"/><line x1="83.37" y1="1461.2" x2="1034.81" y2="1461.2" fill="none" stroke="#213b7c" stroke-miterlimit="10" stroke-width="29.99"/><line x1="83.37" y1="2103.03" x2="1034.81" y2="2103.03" fill="none" stroke="#213b7c" stroke-miterlimit="10" stroke-width="79.97"/><rect x="134.11" y="737.77" width="32.62" height="426.78" rx="16.31" fill="#5366a5"/><rect x="133.2" y="1612.28" width="32.62" height="264.67" rx="14.17" fill="#5366a5"/><rect x="128.67" y="1611.73" width="32.62" height="264.67" rx="14.17" fill="#e6e6e6"/><rect x="128.67" y="737.77" width="32.62" height="426.78" rx="16.31" fill="#e6e6e6"/></svg>