<svg id="Layer_1" xmlns="http://www.w3.org/2000/svg" viewBox="0 0 58.22 55.13"><title>cheese</title><path d="M171.63,303.33,170,300.26c-.46.94-1.07,1.52-1.75,1.52-1.41,0-2.56-2.5-2.56-5.6a10.55,10.55,0,0,1,.46-3.18L158,277.68a1.78,1.78,0,0,1-1.34.89c-1.7,0-3.07-3.93-3.07-8.76,0-.15,0-.29,0-.43l-8-15.11a2.61,2.61,0,0,0-4.6,0l-1.19,2.25c1.22.69,2.13,3.36,2.13,6.55,0,3.72-1.23,6.74-2.76,6.74s-2.76-3-2.76-6.74v-.17L131,273.17a11.25,11.25,0,0,1,1.14,5.4c0,3.57-1.14,6.47-2.56,6.47-1.15,0-2.12-1.93-2.44-4.59L115,303.33a2.53,2.53,0,0,0,2.3,3.7h52A2.54,2.54,0,0,0,171.63,303.33Z" transform="translate(-114.2 -252.4)" fill="#fcee21" stroke="#000" stroke-miterlimit="10"/><ellipse cx="40.34" cy="44.21" rx="2.15" ry="6.13" fill="#fff" stroke="#000" stroke-miterlimit="10"/><ellipse cx="29.59" cy="28.68" rx="2.66" ry="6.32" fill="#fff" stroke="#000" stroke-miterlimit="10"/><ellipse cx="20.08" cy="43.79" rx="2.15" ry="5.6" fill="#fff" stroke="#000" stroke-miterlimit="10"/></svg>