<svg id="Layer_1"  xmlns="http://www.w3.org/2000/svg" viewBox="0 0 59.86 55.16"><title>pizza</title><path d="M117.74,307.3h52a2.53,2.53,0,0,0,2.3-3.7l-26-49.07a2.61,2.61,0,0,0-4.6,0l-26,49.07A2.53,2.53,0,0,0,117.74,307.3Z" transform="translate(-114.05 -252.66)" fill="#f7931e" stroke="#000" stroke-miterlimit="10"/><path d="M168.65,307.3H119.14a6.23,6.23,0,0,1-3.42-1.59,3.14,3.14,0,0,1-1.16-1.92,3.23,3.23,0,0,1,1.13-2.45,5.12,5.12,0,0,1,3.45-1.45h49.51c2.5-.19,4.5,1.39,4.74,3.18a4,4,0,0,1-1.88,3.56A4.44,4.44,0,0,1,168.65,307.3Z" transform="translate(-114.05 -252.66)" fill="#754c24" stroke="#000" stroke-miterlimit="10"/><ellipse cx="18.58" cy="38.15" rx="4.03" ry="3.94" fill="#550051" stroke="#000" stroke-miterlimit="10"/><ellipse cx="28.15" cy="16.43" rx="3.72" ry="3.64" fill="#550051" stroke="#000" stroke-miterlimit="10"/><ellipse cx="39.28" cy="32.21" rx="3.94" ry="3.85" fill="#550051" stroke="#000" stroke-miterlimit="10"/></svg>