<svg id="Layer_1"  xmlns="http://www.w3.org/2000/svg" viewBox="0 0 58.22 64.77"><title>shelter</title><path d="M117.89,312.42h52a2.54,2.54,0,0,0,2.3-3.7l-26-49.07a2.63,2.63,0,0,0-4.61,0l-26,49.07A2.54,2.54,0,0,0,117.89,312.42Z" transform="translate(-114.8 -248.14)" fill="#c7b299" stroke="#000" stroke-miterlimit="10"/><path d="M138,312.42h11.85c.44,0,.73-.72.53-1.33l-5.93-17.63c-.22-.66-.83-.66-1.05,0l-5.92,17.63C137.25,311.7,137.54,312.42,138,312.42Z" transform="translate(-114.8 -248.14)" fill="#a67c52" stroke="#000" stroke-miterlimit="10"/><line x1="25.44" y1="14.08" x2="31.51" y2="0.2" fill="none" stroke="#000" stroke-miterlimit="10"/><line x1="32.36" y1="13.3" x2="25.95" y2="0.68" fill="none" stroke="#000" stroke-miterlimit="10"/></svg>