<svg id="Layer_1"  xmlns="http://www.w3.org/2000/svg" viewBox="0 0 58.22 55.14"><title>watermelon</title><path d="M117,307.3h52a2.54,2.54,0,0,0,2.3-3.7l-26-49.07a2.62,2.62,0,0,0-4.61,0l-26,49.07A2.54,2.54,0,0,0,117,307.3Z" transform="translate(-113.95 -252.66)" fill="#c1272d" stroke="#000" stroke-miterlimit="10"/><path d="M167.81,307.3H118.15a3.49,3.49,0,0,1-3.57-3.33l1.51-2.66c.5-.95,1-1.92,1.49-2.91q.49-1,1-2l48.89-.24c.46.78.92,1.59,1.38,2.44s.93,1.76,1.34,2.61l1.42,3.21a4.24,4.24,0,0,1-1.14,1.77A4.41,4.41,0,0,1,167.81,307.3Z" transform="translate(-113.95 -252.66)" fill="#006837" stroke="#000" stroke-miterlimit="10"/><ellipse cx="15.35" cy="33.74" rx="0.29" ry="3.08" fill="#fff" stroke="#000" stroke-miterlimit="10"/><ellipse cx="28.75" cy="16.7" rx="0.38" ry="3.08" fill="#fff" stroke="#000" stroke-miterlimit="10"/><ellipse cx="34.39" cy="27.87" rx="0.43" ry="3.51" fill="#fff" stroke="#000" stroke-miterlimit="10"/><ellipse cx="39.97" cy="36.92" rx="0.43" ry="3.18" fill="#fff" stroke="#000" stroke-miterlimit="10"/><ellipse cx="22.3" cy="36.53" rx="0.5" ry="3.58" fill="#fff" stroke="#000" stroke-miterlimit="10"/></svg>