<svg xmlns="http://www.w3.org/2000/svg" xmlns:xlink="http://www.w3.org/1999/xlink"
    viewBox="0 0 1125 2436">
    <defs>
        <clipPath id="clip-path">
            <rect y="-1" width="1127" height="2437" fill="none" />
        </clipPath>
        <linearGradient id="linear-gradient" x1="196" y1="1218" x2="226" y2="1218"
            gradientUnits="userSpaceOnUse">
            <stop offset="0" stop-color="#fff" stop-opacity="0" />
            <stop offset="0.84" stop-color="#090909" stop-opacity="0.48" />
            <stop offset="1" stop-opacity="0.5" />
        </linearGradient>
        <linearGradient id="linear-gradient-2" x1="420" y1="1217" x2="450" y2="1217"
            xlink:href="#linear-gradient" />
        <linearGradient id="linear-gradient-3" x1="647" y1="1217" x2="677" y2="1217"
            xlink:href="#linear-gradient" />
        <linearGradient id="linear-gradient-4" x1="870" x2="900" xlink:href="#linear-gradient" />
        <linearGradient id="linear-gradient-5" x1="46.97" y1="2301.71" x2="225.93" y2="2301.71"
            xlink:href="#linear-gradient" />
        <linearGradient id="linear-gradient-6" x1="360.12" y1="2301.59" x2="449.99" y2="2301.59"
            xlink:href="#linear-gradient" />
        <linearGradient id="linear-gradient-7" x1="647" y1="2301.69" x2="719.35" y2="2301.69"
            xlink:href="#linear-gradient" />
        <linearGradient id="linear-gradient-8" x1="870.06" y1="2302.01" x2="1031.1" y2="2302.01"
            xlink:href="#linear-gradient" />
    </defs>
    <g id="Layer_6">
        <g clip-path="url(#clip-path)">
            <rect width="226" height="2436" fill="#93278f" />
            <rect x="226" width="226" height="2436" fill="#662d91" stroke="#000"
                stroke-miterlimit="10" stroke-width="0" />
            <rect x="450" width="226" height="2436" fill="#29abe2" stroke="#000"
                stroke-miterlimit="10" stroke-width="0" />
            <rect x="677" width="226" height="2436" fill="#24edaa" stroke="#000"
                stroke-miterlimit="10" stroke-width="0" />
            <rect x="900" width="226" height="2436" fill="#f7da08" stroke="#000"
                stroke-miterlimit="10" stroke-width="0" />
            <rect x="196" width="30" height="2436" fill="url(#linear-gradient)" />
            <rect x="420" y="-1" width="30" height="2436" fill="url(#linear-gradient-2)" />
            <rect x="647" y="-1" width="30" height="2436" fill="url(#linear-gradient-3)" />
            <rect x="870" width="30" height="2436" fill="url(#linear-gradient-4)" />
            <line y1="2044" x2="1126" y2="2044" fill="none" stroke="#603813" stroke-miterlimit="10"
                stroke-width="6" />
            <rect y="2044" width="1126" height="516" fill="#fcc190" />
            <g opacity="0.46">
                <path d="M88.9,2559.2-227,2559-.09,2044.21h226Q157.42,2301.7,88.9,2559.2Z"
                    fill="#eaaf47" />
                <path
                    d="M404.83,2559.4l-315.93-.2q68.52-257.49,137-515H452Q428.4,2301.81,404.83,2559.4Z"
                    fill="#eaaf47" stroke="#000" stroke-miterlimit="10" stroke-width="0" />
                <path d="M718,2559.6,402,2559.4,450,2044.21H676Q697,2301.91,718,2559.6Z"
                    fill="#eaaf47" stroke="#000" stroke-miterlimit="10" stroke-width="0" />
                <path
                    d="M1035.29,2559.8l-315.93-.2Q698.2,2301.9,677,2044.21h226Q969.18,2302,1035.29,2559.8Z"
                    fill="#eaaf47" stroke="#000" stroke-miterlimit="10" stroke-width="0" />
                <path d="M1347,2560l-315.9-.2-131-515.59h226Z" fill="#eaaf47" stroke="#000"
                    stroke-miterlimit="10" stroke-width="0" />
                <path d="M88.9,2559.2l-41.93,0q74.48-257.48,149-515h30Q157.42,2301.7,88.9,2559.2Z"
                    fill="url(#linear-gradient-5)" />
                <path d="M402.05,2559.19l-41.93,0Q390.06,2301.58,420,2044h30Z"
                    fill="url(#linear-gradient-6)" />
                <path d="M719.35,2559.39l-41.94,0L647,2044h30Q698.18,2301.7,719.35,2559.39Z"
                    fill="url(#linear-gradient-7)" />
                <path d="M1031.1,2559.8l-41.94,0-119.1-515.56h30Z" fill="url(#linear-gradient-8)" />
            </g>
        </g>
    </g>
</svg>