<svg id="cloud" xmlns="http://www.w3.org/2000/svg" viewBox="0 0 1069 1575"><title>buble</title><path d="M1097,1170a164.39,164.39,0,0,0-46-114.23,124.5,124.5,0,0,0,7.07-157.95c16.09-17.34,19.75-38.05,7.42-57.72,6.66-23.1,3-48-12.78-70.55a112.15,112.15,0,0,0-26.36-26.4,99.61,99.61,0,0,0,18.3-19.74c31.21-44.84,10.43-100.14-46.2-125.8,33.45-54.35,38-121.43,5.52-185.19q-4.54-8.94-9.89-17.44l2.15-.61c69.93-20.68,104.62-80.65,77.49-133.95-9.52-18.7-25.4-34.09-45-45.3a74.28,74.28,0,0,0-8.22-40c-24.83-48.79-96.85-73-160.86-54.06a133.21,133.21,0,0,0-41.56,20.28c-42.65-29.28-102.57-40-157-23.94q-3.72,1.11-7.32,2.34c-66-81.9-192.2-120.93-303-88.15-51.69,15.29-92,43.83-117.94,79.5A141.51,141.51,0,0,0,113.57,355.43c.18,1.76.4,3.5.66,5.23C78.3,383.16,54,426.15,54,475.5c0,.66,0,1.32,0,2a132.4,132.4,0,0,0-15,61c0,28.31,9.15,54.86,25.15,77.77-.57,16.69,4.23,33.08,13.63,47.81a74,74,0,0,0-12,134.44A140.81,140.81,0,0,0,39,881c0,39.1,16.15,74.63,42.49,101-13.7,20.8-9.39,43.34,9.67,61.77-11.73,6.77-21.31,14.86-27.88,24.08-27.27,38.26,7.6,81.32,77.89,96.16.72.16,1.44.3,2.16.44-3.56,4.07-6.89,8.24-9.94,12.52-32.63,45.77-28.08,93.94,5.55,133C82,1328.3,61.12,1368,92.5,1400.2c8.72,9,20.61,16.41,34.51,22.18-1.71,13.38,3.21,27.18,15.61,39.9,35.33,36.25,118,50,184.58,30.82l2-.6q5,6.18,10.89,12.28c77.14,79.15,246.33,112.52,377.89,74.53a294.82,294.82,0,0,0,57.47-22.94,138,138,0,0,0,59.95,13.36c64.52,0,117-42.35,118.39-95,31.84-10.75,54.49-32.68,57.51-58.49,24.72-13.45,41.68-41,41.68-72.71a85.17,85.17,0,0,0-14.34-47.62A164.64,164.64,0,0,0,1097,1170Z" transform="translate(-28 -20)" fill="#fff"/></svg>