<svg id="Layer_1"  xmlns="http://www.w3.org/2000/svg" viewBox="0 0 99 88.74"><path d="M15.59,11.25H83.41a2.05,2.05,0,0,1,2.05,2.05V83.24a5,5,0,0,1-5,5H18.54a5,5,0,0,1-5-5V13.3A2.05,2.05,0,0,1,15.59,11.25Z" fill="#d83307" stroke="#000" stroke-miterlimit="10"/><path d="M81.42,95H36s6.5-28.5,24.5-43.5c16.62-13.85-2-31-2-31L83.82,18a1.68,1.68,0,0,1,1.68,1.68V90.92A4.1,4.1,0,0,1,81.42,95Z" transform="translate(-0.5 -6.76)" fill="#d35339"/><path d="M83,94,59,95s3.55-15.56,13.36-23.74C81.43,63.7,86,73,86,73V91C86,93.23,85,93,83,94Z" transform="translate(-0.5 -6.76)" fill="#e58373"/><path d="M14,19l26.86,1S49,23,45,27c-7.78,7.78-6.65,14.3-9,19-5,10-11.46,5.64-15,8-6,4-7,.77-7,.77Z" transform="translate(-0.5 -6.76)" fill="#e82828"/><path d="M15.59,10.94H83.41A2.05,2.05,0,0,1,85.46,13V82.94a5,5,0,0,1-5,5H18.54a5,5,0,0,1-5-5V13A2.05,2.05,0,0,1,15.59,10.94Z" fill="none" stroke="#000" stroke-miterlimit="10"/><path d="M89.88,17.71c0,3.23-78.76,3.23-78.76,0s17.63-5.85,39.38-5.85S89.88,14.48,89.88,17.71Z" transform="translate(-0.5 -6.76)" fill="#d83307" stroke="#000" stroke-miterlimit="10"/><path d="M95.45,25.92a3.53,3.53,0,0,0-3.32,2.4H86v9.6l7.08-5.74a3.49,3.49,0,0,0,2.37.94,3.6,3.6,0,0,0,0-7.2Z" transform="translate(-0.5 -6.76)" fill="#333" stroke="#000" stroke-miterlimit="10"/><path d="M4.55,25.92a3.53,3.53,0,0,1,3.32,2.4H14v9.6L6.92,32.18a3.49,3.49,0,0,1-2.37.94,3.6,3.6,0,0,1,0-7.2Z" transform="translate(-0.5 -6.76)" fill="#333" stroke="#000" stroke-miterlimit="10"/><path d="M11.5,18c1,1,29.2,2,19,2,5.8,0,5.8-7,0-7S9.5,16,11.5,18Z" transform="translate(-0.5 -6.76)" fill="#d35339"/><path d="M89.88,17.71c0,3.23-78.76,3.23-78.76,0s17.63-5.85,39.38-5.85S89.88,14.48,89.88,17.71Z" transform="translate(-0.5 -6.76)" fill="none" stroke="#000" stroke-miterlimit="10"/><rect x="47.29" y="0.5" width="4.21" height="8.77" rx="1.99" fill="#333" stroke="#000" stroke-miterlimit="10"/></svg>