<svg id="Layer_1" xmlns="http://www.w3.org/2000/svg" viewBox="0 0 60.2 58.19"><title>fridge</title><path d="M197.85,150.07" transform="translate(-137.93 -98.73)" fill="#4d4d4d"/><path d="M192.53,154H148a5.11,5.11,0,0,1-5.1-5.1V104.32a5.24,5.24,0,0,1,1.49-3.6A5.11,5.11,0,0,1,148,99.23h44.57a5.11,5.11,0,0,1,5.1,5.09V148.9A5.12,5.12,0,0,1,192.53,154Z" transform="translate(-137.93 -98.73)" fill="#dcffff" stroke="#000" stroke-linejoin="bevel"/><line x1="4.93" y1="18.24" x2="59.7" y2="18.24" fill="none" stroke="#000" stroke-linejoin="bevel"/><rect x="11.11" y="55.27" width="3.61" height="2.42" fill="#1a1a1a" stroke="#000" stroke-linejoin="bevel"/><rect x="49.63" y="55.27" width="3.61" height="2.42" fill="#1a1a1a" stroke="#000" stroke-linejoin="bevel"/><ellipse cx="6.61" cy="33.53" rx="6.11" ry="2.04" fill="#65c8d0" stroke="#000" stroke-linejoin="bevel"/><ellipse cx="6.61" cy="10.41" rx="6.11" ry="2.06" fill="#65c8d0" stroke="#000" stroke-linejoin="bevel"/><path d="M184.32,123.8v22.27c0,2.48.79,4.49,1.76,4.49h7.08c1,0,1.76-2,1.76-4.49V123.8c0-2.49-.79-4.5-1.76-4.5h-7.08C185.11,119.3,184.32,121.31,184.32,123.8Z" transform="translate(-137.93 -98.73)" fill="#fff"/><rect x="46.39" y="3.64" width="10.61" height="12.25" rx="1.76" ry="1.76" fill="#fff"/></svg>