<svg id="Layer_1"  xmlns="http://www.w3.org/2000/svg" viewBox="0 0 55.77 55.77"><title>letter</title><path d="M197.85,150.07" transform="translate(-139.55 -100.22)" fill="#4d4d4d"/><path d="M189.72,155.49H145.15a5.11,5.11,0,0,1-5.1-5.1V105.82a5.19,5.19,0,0,1,1.5-3.6,5.05,5.05,0,0,1,3.6-1.5h44.57a5.11,5.11,0,0,1,5.1,5.1v44.57A5.11,5.11,0,0,1,189.72,155.49Z" transform="translate(-139.55 -100.22)" fill="#fff" stroke="#000" stroke-linejoin="bevel"/><path d="M156.33,103.72l-12.81,0a1,1,0,0,0-1,1v10.46a1,1,0,0,0,.65.92,1.25,1.25,0,0,0,1.07-.32c1.47-1.06,3.07-5.45,3.8-6.88C149,107,151.13,104.91,156.33,103.72Z" transform="translate(-139.55 -100.22)" fill="#e6e6e6"/><rect x="141.61" y="136.71" width="15.64" height="11.17" rx="0.36" ry="0.36" transform="translate(152.18 -107.35) rotate(90)" fill="#fcee21" stroke="#000" stroke-linejoin="bevel"/><line x1="55.27" y1="17.11" x2="27.89" y2="30.39" fill="none" stroke="#000" stroke-linejoin="bevel"/><line x1="0.5" y1="16.46" x2="27.89" y2="30.39" fill="none" stroke="#000" stroke-linejoin="bevel"/></svg>