<svg id="Layer_1" xmlns="http://www.w3.org/2000/svg" viewBox="0 0 55.77 61.85"><title>note</title><path d="M88.41,84.73" transform="translate(-139.46 -97.5)" fill="#fff" stroke="#000" stroke-miterlimit="10"/><rect x="0.5" y="6.58" width="54.77" height="54.77" rx="5.1" ry="5.1" fill="#e6e6e6" stroke="#000" stroke-linejoin="bevel"/><line x1="29.83" y1="12.87" x2="48.75" y2="12.87" fill="none" stroke="#000" stroke-linejoin="bevel"/><line x1="7.03" y1="55.71" x2="48.75" y2="55.71" fill="none" stroke="#000" stroke-linejoin="bevel"/><line x1="7.03" y1="50.95" x2="48.75" y2="50.95" fill="none" stroke="#000" stroke-linejoin="bevel"/><line x1="7.03" y1="46.19" x2="48.75" y2="46.19" fill="none" stroke="#000" stroke-linejoin="bevel"/><line x1="7.03" y1="41.43" x2="48.75" y2="41.43" fill="none" stroke="#000" stroke-linejoin="bevel"/><line x1="7.03" y1="36.67" x2="48.75" y2="36.67" fill="none" stroke="#000" stroke-linejoin="bevel"/><line x1="7.03" y1="31.91" x2="48.75" y2="31.91" fill="none" stroke="#000" stroke-linejoin="bevel"/><line x1="29.83" y1="27.15" x2="48.75" y2="27.15" fill="none" stroke="#000" stroke-linejoin="bevel"/><line x1="29.83" y1="22.39" x2="48.75" y2="22.39" fill="none" stroke="#000" stroke-linejoin="bevel"/><line x1="29.83" y1="17.63" x2="48.75" y2="17.63" fill="none" stroke="#000" stroke-linejoin="bevel"/><rect x="7.03" y="12.87" width="15.07" height="15.07" rx="2.69" ry="2.69" fill="#8cc63f" stroke="#000" stroke-linejoin="bevel"/><rect x="44.25" y="0.5" width="4.5" height="34.89" rx="2.25" ry="2.25" fill="#29abe2" stroke="#000" stroke-linejoin="bevel"/><rect x="8.69" y="14.52" width="8.98" height="11.97" rx="1.61" ry="1.61" fill="#39b54a"/></svg>