<svg id="Layer_1" xmlns="http://www.w3.org/2000/svg" viewBox="0 0 55.77 62.02"><title>phone</title><path d="M189.63,158.51H145.06a5.11,5.11,0,0,1-5.1-5.1V108.84a5.22,5.22,0,0,1,1.5-3.6,5.05,5.05,0,0,1,3.6-1.5h44.57a5.11,5.11,0,0,1,5.1,5.1v44.57A5.11,5.11,0,0,1,189.63,158.51Z" transform="translate(-139.46 -96.99)" fill="#838bc5" stroke="#000" stroke-linejoin="bevel"/><rect x="44.25" y="0.5" width="2.25" height="6.39" rx="1.12" ry="1.12" fill="#0071bc" stroke="#000" stroke-linejoin="bevel"/><circle cx="27.89" cy="54.57" r="5" fill="#0071bc" stroke="#000" stroke-linejoin="bevel"/><rect x="5.25" y="12.81" width="44.98" height="34.58" rx="3.71" ry="3.71" fill="#e6e6e6" stroke="#000" stroke-linejoin="bevel"/><rect x="7.97" y="14.16" width="5.84" height="29.77" rx="2.92" ry="2.92" fill="#ccc"/><path d="M178.39,156c0,.76,8.61.64,10.67.23a6,6,0,0,0,1.7-.65,3.23,3.23,0,0,0,1.66-3.4c0-3,0-4.49-.29-4.56s-.52.82-1.51,2.06a27.31,27.31,0,0,1-2.89,3.3C184.49,156.2,178.4,155.38,178.39,156Z" transform="translate(-139.46 -96.99)" fill="#8379c5"/><path d="M164.59,148.64c-.14-.06-.7.63-1,1.47a4,4,0,0,0-.11,1.68,3.66,3.66,0,0,0,.63,1.74,3.73,3.73,0,0,0,1.21,1c.47.23,1.06.54,1.37.31s.28-1.42-.29-2.15c-.72-.91-1.67-.56-2.14-1.33C163.69,150.34,164.79,148.73,164.59,148.64Z" transform="translate(-139.46 -96.99)" fill="#29abe2"/></svg>