<svg id="Layer_1"  xmlns="http://www.w3.org/2000/svg" viewBox="0 0 55.77 82.52"><title>tv</title><rect x="0.5" y="27.25" width="54.77" height="54.77" rx="5.1" ry="5.1" fill="#999" stroke="#000" stroke-linejoin="bevel"/><ellipse cx="29" cy="76.19" rx="19.61" ry="1.12" fill="#fbb03b" stroke="#000" stroke-linejoin="bevel"/><line x1="24.82" y1="0.02" x2="23.47" y2="27.25" fill="none" stroke="#000" stroke-linejoin="bevel"/><line x1="23.47" y1="27.25" x2="8.61" y2="13.98" fill="none" stroke="#000" stroke-linejoin="bevel"/><rect x="5.21" y="31.31" width="45.25" height="38.53" rx="5.1" ry="5.1" fill="#29abe2" stroke="#000" stroke-linejoin="bevel"/><path d="M149.27,131.28a10.76,10.76,0,0,1-.83-3,11.12,11.12,0,0,1,.81-5.69,11.11,11.11,0,0,1,2.77-.48,11.51,11.51,0,0,1,3.88.48,27.19,27.19,0,0,1-6.63,8.69Z" transform="translate(-139.86 -86.83)" fill="#53abe2"/><path d="M151.84,152.33c-.33-.46-1.36-1.85-.88-2.87,1.71-3.56,18.24,5.81,27.13-.88,5-3.79,4.87-10.66,6.62-10.37s2.69,7.41.88,12.91a5.15,5.15,0,0,1-.66,1.54c-2,3-7,1.71-14.78,1.44C159.07,153.7,154.29,155.65,151.84,152.33Z" transform="translate(-139.86 -86.83)" fill="#0098e2"/></svg>