<svg id="Layer_1"  xmlns="http://www.w3.org/2000/svg" viewBox="0 0 55.77 58.19"><title>washer</title><path d="M188.13,154H143.56a5.11,5.11,0,0,1-5.1-5.1V104.32a5.22,5.22,0,0,1,1.5-3.6,5.09,5.09,0,0,1,3.6-1.49h44.57a5.11,5.11,0,0,1,5.1,5.09V148.9A5.11,5.11,0,0,1,188.13,154Z" transform="translate(-137.96 -98.73)" fill="#fff" stroke="#000" stroke-linejoin="bevel"/><path d="M176.29,151.31H189.1a1,1,0,0,0,1-1V139.88a1,1,0,0,0-.65-.92,1.29,1.29,0,0,0-1.08.32c-1.46,1.06-3.06,5.45-3.78,6.88C183.62,148,181.49,150.1,176.29,151.31Z" transform="translate(-137.96 -98.73)" fill="#e6e6e6"/><path d="M141.49,110c-.73.75-.61,1.79-.45,4.06a91.81,91.81,0,0,1,.4,9.51c-.07,2.29.28,4.63-.18,6.87-.12.59-.36,1.6.12,2s1.87-.21,2.57-.71a7,7,0,0,0,2.45-3.85c1.38-4.42,0-5.18,1.26-8.57a13.66,13.66,0,0,1,2.83-5.07c.86-.91,1.91-1.68,1.75-2.59-.12-.69-.85-1.1-1.4-1.4a7.86,7.86,0,0,0-4.1-.73C143.6,109.5,142,109.5,141.49,110Z" transform="translate(-137.96 -98.73)" fill="#e6e6e6"/><path d="M197.85,150.07" transform="translate(-137.96 -98.73)" fill="#4d4d4d"/><path d="M183.18,140.05" transform="translate(-137.96 -98.73)" fill="#4d4d4d"/><rect x="6.82" y="55.27" width="3.61" height="2.42" fill="#1a1a1a" stroke="#000" stroke-linejoin="bevel"/><rect x="45.34" y="55.27" width="3.61" height="2.42" fill="#333" stroke="#000" stroke-linejoin="bevel"/><rect x="43.91" y="2.97" width="3.61" height="3.61" fill="#2e3192" stroke="#000" stroke-linejoin="bevel"/><rect x="5.2" y="2.97" width="16.83" height="3.61" fill="#29abe2" stroke="#000" stroke-linejoin="bevel"/><line x1="0.5" y1="8.79" x2="55.27" y2="8.59" fill="#22b573" stroke="#000" stroke-linejoin="bevel"/><circle cx="27.89" cy="27.89" r="15.42" fill="#ccc" stroke="#000" stroke-linejoin="bevel"/><circle cx="27.96" cy="27.89" r="9.65" fill="#666" stroke="#000" stroke-linejoin="bevel"/><ellipse cx="36.69" cy="28.04" rx="2.61" ry="5.42" fill="#fff" stroke="#000" stroke-linejoin="bevel"/><path d="M171,129.91a5,5,0,0,0,.2,1.3,2.29,2.29,0,0,0,.81,1,7.12,7.12,0,0,1-.81.92,6.75,6.75,0,0,1-1.57,1.11,7.64,7.64,0,0,1-1.89.72,7.31,7.31,0,0,1-1.88.21c.19,0,.4-.12.62-.2a8.15,8.15,0,0,0,.93-.44l.88-.51,1.61-1.45a5.47,5.47,0,0,0,.74-1.41A12.32,12.32,0,0,1,171,129.91Z" transform="translate(-137.96 -98.73)" fill="#4d4d4d"/></svg>