<svg id="Layer_1" xmlns="http://www.w3.org/2000/svg" viewBox="0 0 66.9 60.35"><title>window</title><path d="M88.41,84.73" transform="translate(-134.49 -97.91)" fill="#fff" stroke="#000" stroke-miterlimit="10"/><rect x="6.07" y="0.5" width="54.77" height="54.77" rx="5.1" ry="5.1" fill="#fff" stroke="#000" stroke-linejoin="bevel"/><line x1="59.72" y1="53.35" x2="66.55" y2="59.85" fill="none" stroke="#000" stroke-linejoin="bevel"/><line x1="6.96" y1="53.04" x2="0.36" y2="59.85" fill="none" stroke="#000" stroke-linejoin="bevel"/><line x1="0.36" y1="59.85" x2="66.55" y2="59.85" fill="#fff" stroke="#000" stroke-linejoin="bevel"/><path d="M190.62,120.71v24.71a2.72,2.72,0,0,1-2.71,2.72H173a2.72,2.72,0,0,1-2.71-2.72V120.71A2.72,2.72,0,0,1,173,118h14.95A2.72,2.72,0,0,1,190.62,120.71Z" transform="translate(-134.49 -97.91)" fill="#57ffff"/><path d="M190.62,105.5v6.62a2.72,2.72,0,0,1-2.71,2.72H173a2.72,2.72,0,0,1-2.71-2.72V105.5a2.72,2.72,0,0,1,2.71-2.71h14.95A2.72,2.72,0,0,1,190.62,105.5Z" transform="translate(-134.49 -97.91)" fill="#57ffff"/><path d="M187.91,148.14H173a2.72,2.72,0,0,1-2.71-2.72V120.71A2.72,2.72,0,0,1,173,118h14.95a2.72,2.72,0,0,1,2.71,2.72v24.71A2.72,2.72,0,0,1,187.91,148.14Z" transform="translate(-134.49 -97.91)" fill="none" stroke="#000" stroke-linejoin="bevel"/><path d="M187.91,114.84H173a2.72,2.72,0,0,1-2.71-2.72V105.5a2.72,2.72,0,0,1,2.71-2.71h14.95a2.72,2.72,0,0,1,2.71,2.71v6.62A2.72,2.72,0,0,1,187.91,114.84Z" transform="translate(-134.49 -97.91)" fill="none" stroke="#000" stroke-linejoin="bevel"/><path d="M165.65,105.5v39.92a2.72,2.72,0,0,1-2.72,2.72H148a2.72,2.72,0,0,1-2.72-2.72V105.5a2.72,2.72,0,0,1,2.72-2.71h14.94A2.72,2.72,0,0,1,165.65,105.5Z" transform="translate(-134.49 -97.91)" fill="#42ffff"/><path d="M162.93,148.14H148a2.72,2.72,0,0,1-2.72-2.72V105.5a2.72,2.72,0,0,1,2.72-2.71h14.94a2.72,2.72,0,0,1,2.72,2.71v39.92A2.72,2.72,0,0,1,162.93,148.14Z" transform="translate(-134.49 -97.91)" fill="none" stroke="#000" stroke-linejoin="bevel"/><path d="M151.41,104.38h-4.28v41.68h16.13v-2.63c-2.26-.08-7.27-.61-10.2-4.45a10.67,10.67,0,0,1-1.76-3.66C149,127.05,151.08,107.35,151.41,104.38Z" transform="translate(-134.49 -97.91)" fill="#92ffff"/><path d="M172.32,104.38h15.4v4.43h-.82a21.74,21.74,0,0,0-4.07-2,22.87,22.87,0,0,0-10.51-1.23Z" transform="translate(-134.49 -97.91)" fill="#92ffff"/></svg>