<svg id="Слой_1"  xmlns="http://www.w3.org/2000/svg" viewBox="0 0 123.46 119.88"><title>triangleWatermelon</title><path d="M237.41,473.08c-1.77,3.23.34,7.36,3.76,7.36H354.82c3.43,0,5.54-4.13,3.76-7.37l-60.74-111Z" transform="translate(-236.27 -361.06)" fill="#198a38" stroke="#1d1d1b" stroke-miterlimit="10"/><polygon points="61.58 2.09 3.44 108.83 120.01 108.83 61.58 2.09" fill="#df0917"/><polygon points="61.73 6.99 9.3 104.43 23.01 104.43 61.73 6.99" fill="#c11819"/><path d="M262.59,458a4,4,0,0,1-2.9-2.56,5.36,5.36,0,0,1,0-3.69c.13-.45.55-1.72,3.57-5,1.37-1.5,1.47-1.29,2.27-2.35.49-.65.82-1.22,1.19-1.16.15,0,.41.17.74,1.36a10.16,10.16,0,0,1,.4,2.83c-.13,3.38-.19,5.07-.53,6C266.71,455,264.88,458.17,262.59,458Z" transform="translate(-236.27 -361.06)" fill="#020304"/><path d="M265.4,452.4c.49-.76.65-1.51.86-1.48s.27.89.17,1.59a5.76,5.76,0,0,1-1.87,3.28c-.84.73-2.09,1.29-2.34.66a2.46,2.46,0,0,1,.24-1.38C263.15,453.54,264.32,454.08,265.4,452.4Z" transform="translate(-236.27 -361.06)" fill="#fff"/><path d="M295,450.78a4,4,0,0,1-3.26-2.07,5.35,5.35,0,0,1-.56-3.65c.06-.46.27-1.78,2.73-5.53,1.11-1.7,1.25-1.5,1.87-2.68.38-.72.62-1.33,1-1.33.16,0,.44.1,1,1.22a10.31,10.31,0,0,1,.84,2.74c.41,3.35.61,5,.41,6C298.6,447.18,297.3,450.63,295,450.78Z" transform="translate(-236.27 -361.06)" fill="#020304"/><path d="M296.9,444.86c.37-.84.41-1.6.62-1.59s.41.82.42,1.54a5.73,5.73,0,0,1-1.33,3.52c-.72.86-1.86,1.6-2.2,1-.25-.41,0-1.34,0-1.4C294.86,446.34,296.1,446.68,296.9,444.86Z" transform="translate(-236.27 -361.06)" fill="#fff"/><path d="M279.72,420.54c-.54.06-1-.52-1.25-1a3.43,3.43,0,0,1-.19-1.8,8.47,8.47,0,0,1,1.09-2.74c.44-.85.5-.76.74-1.34.16-.36.25-.66.4-.66s.16,0,.35.59a5.85,5.85,0,0,1,.3,1.35,15.32,15.32,0,0,1,.12,2.94C281.13,418.74,280.6,420.45,279.72,420.54Z" transform="translate(-236.27 -361.06)" fill="#020304"/><path d="M280.49,417.6c.15-.41.17-.79.25-.79s.15.41.15.76a3.38,3.38,0,0,1-.54,1.75c-.28.43-.73.8-.85.52a1.68,1.68,0,0,1,0-.69C279.69,418.35,280.17,418.51,280.49,417.6Z" transform="translate(-236.27 -361.06)" fill="#fff"/><path d="M300.09,413.38c-.53.14-1.09-.35-1.39-.79a3.25,3.25,0,0,1-.48-1.74,8.42,8.42,0,0,1,.64-2.89c.3-.9.36-.82.51-1.43.09-.38.14-.7.28-.72s.17,0,.45.53a6.37,6.37,0,0,1,.51,1.28,15.14,15.14,0,0,1,.59,2.88C301.19,411.37,300.94,413.15,300.09,413.38Z" transform="translate(-236.27 -361.06)" fill="#020304"/><path d="M300.38,410.36c.07-.43,0-.81.11-.82s.22.37.27.72a3.3,3.3,0,0,1-.24,1.81c-.21.47-.59.91-.76.65a1.59,1.59,0,0,1-.1-.68C299.71,411.22,300.21,411.3,300.38,410.36Z" transform="translate(-236.27 -361.06)" fill="#fff"/><path d="M317,420.11c-.48.25-1.14-.11-1.52-.48a3.22,3.22,0,0,1-.83-1.61,8.28,8.28,0,0,1,0-2.95c.11-.95.19-.88.21-1.51,0-.39,0-.71.12-.77s.17,0,.55.43a6.35,6.35,0,0,1,.77,1.14,15.12,15.12,0,0,1,1.18,2.7C317.7,417.91,317.83,419.7,317,420.11Z" transform="translate(-236.27 -361.06)" fill="#020304"/><path d="M316.69,417.09c0-.44-.13-.8-.05-.83s.28.33.41.66a3.38,3.38,0,0,1,.14,1.82c-.11.5-.39,1-.61.8a1.63,1.63,0,0,1-.24-.65C316.22,418.08,316.72,418.05,316.69,417.09Z" transform="translate(-236.27 -361.06)" fill="#fff"/><path d="M334,458.1a4,4,0,0,1-3.69-1.15,5.37,5.37,0,0,1-1.5-3.37c-.06-.46-.2-1.79,1.19-6.06.63-1.93.81-1.78,1.1-3.07.18-.8.25-1.45.61-1.55.15,0,.44,0,1.23.94a10.24,10.24,0,0,1,1.53,2.41c1.27,3.13,1.91,4.7,2,5.65C336.56,453.67,336.21,457.35,334,458.1Z" transform="translate(-236.27 -361.06)" fill="#020304"/><path d="M334.31,451.88c.14-.9,0-1.65.18-1.7s.61.69.81,1.38a5.79,5.79,0,0,1-.36,3.75c-.47,1-1.37,2-1.85,1.56s-.36-1.28-.36-1.35C332.73,453.84,334,453.85,334.31,451.88Z" transform="translate(-236.27 -361.06)" fill="#fff"/><polygon points="5.84 104.18 3.44 108.83 120.01 108.83 117.1 103.52 5.84 104.18" fill="#f5f4f3"/></svg>