<svg id="Слой_1" xmlns="http://www.w3.org/2000/svg" viewBox="0 0 123.46 114.79"><title>triangleCheese</title><path d="M358.58,470.66l-57-104.07a4.19,4.19,0,0,0-7.53,0l-11.44,21a25.67,25.67,0,0,1,1.92,10.14c0,8.62-3.56,15.6-8,15.6-2.16,0-4.12-1.7-5.56-4.44l-33.64,61.77c-1.77,3.24.34,7.37,3.76,7.37h81.74a19.71,19.71,0,0,1-2.5-10c0-8.06,4.16-14.6,9.29-14.6S339,460,339,468.08a19.72,19.72,0,0,1-2.51,10h18.34C358.25,478,360.36,473.9,358.58,470.66Zm-81.14-5.56c-4.86,0-8.79-6.69-8.79-14.93s3.93-14.93,8.79-14.93,8.79,6.68,8.79,14.93S282.29,465.1,277.44,465.1Zm33.68-29.86c-4,0-7.3-6.17-7.3-13.77s3.26-13.77,7.3-13.77,7.3,6.16,7.3,13.77S315.15,435.24,311.12,435.24Z" transform="translate(-236.27 -363.75)" fill="#ffe34a" stroke="#1d1d1b" stroke-miterlimit="10"/></svg>