<svg id="Layer_1"  xmlns="http://www.w3.org/2000/svg" viewBox="0 0 55.92 69.64"><title>newyear</title><circle cx="27.96" cy="41.68" r="27.46" fill="#65c8d0" stroke="#000" stroke-miterlimit="10"/><path d="M146.24,259.39h-7.06v-4.2a16.89,16.89,0,0,1,2.75-.36c.17,0,.52,0,.95,0a16.75,16.75,0,0,1,3.36.37Z" transform="translate(-116.04 -245.17)" fill="#fbb03b" stroke="#000" stroke-miterlimit="10"/><path d="M138.7,249.17a4.53,4.53,0,0,1,1.91-2.76c1.2-.75,3.17-1.14,4.32-.12,1,.89.89,2.44.83,3.36a5.51,5.51,0,0,1-.59,2.27h0s-1.6,2.64-2.76,2.87C141,255.09,138.14,252.05,138.7,249.17Z" transform="translate(-116.04 -245.17)" fill="none" stroke="#000" stroke-miterlimit="10"/></svg>