<svg id="Слой_1"  xmlns="http://www.w3.org/2000/svg" viewBox="0 0 99 104.35"><title>circleOrange</title><circle cx="49.5" cy="54.85" r="49" fill="#f28c22" stroke="#1d1d1b" stroke-miterlimit="10"/><circle cx="54.41" cy="48.48" r="39.75" fill="#f7a81f"/><circle cx="62.6" cy="49.42" r="29.83" fill="#f9b51f"/><circle cx="75.77" cy="35.22" r="9.12" fill="#fcd98c"/><path d="M287.71,384.08h15.93a10.78,10.78,0,0,1-3.25,2.71,10.47,10.47,0,0,1-4.71,1.27,14,14,0,0,1-3.77-1.09A14.51,14.51,0,0,1,287.71,384.08Z" transform="translate(-248.5 -369.41)" fill="#d97829"/><path d="M296.2,381.1l1.07,2.86a20,20,0,0,1,8.39-4.16,20.45,20.45,0,0,1,9.55,0l.94-2.25a25,25,0,0,0-6.37-.65A27.2,27.2,0,0,0,296.2,381.1Z" transform="translate(-248.5 -369.41)" fill="#99a338"/><path d="M295.08,386.29c-1.41-.45-1.81-2.23-1.55-3.39.05-.21.06-.17.88-1.57,1-1.78,1.34-2.41,2.21-3.72.12-.18.28-.67.44-.65s.2.41.22.57.39,1.34,1.13,3.72c.45,1.48.52,1.34.53,1.73a3.17,3.17,0,0,1-1.23,2.72A3.24,3.24,0,0,1,295.08,386.29Z" transform="translate(-248.5 -369.41)" fill="#9c3a2a"/><path d="M307.6,378c-.67-3.61.68-5.38,1.21-6,3.09-3.42,11.73-3.75,20.53.91Z" transform="translate(-248.5 -369.41)" fill="#ced438"/><path d="M307.61,378.06c1.09,3.51,3.12,4.5,3.86,4.8,4.36,1.72,12.24-1.71,17.93-9.67Z" transform="translate(-248.5 -369.41)" fill="#99a338"/></svg>