<svg id="Слой_1" xmlns="http://www.w3.org/2000/svg" viewBox="0 0 99 99"><title>circlePizza</title><circle cx="49.5" cy="49.5" r="49" fill="#ee8633" stroke="#1d1d1b" stroke-miterlimit="10"/><path d="M344.61,422.06c-1.56,4.47-6.29,4.35-8.29,10.19-1.08,3.14-.15,4.46-1.76,10.4a26,26,0,0,1-1.87,5.4c-2.49,5-6.54,7.72-9,9.36s-5.43,2.8-11.12,5c-3.37,1.33-5,1.78-6.94,1.8-2.91,0-3.18-.86-6.63-.9-3.1,0-3.74.69-7.14.61a15.49,15.49,0,0,1-4.88-.61c-2.9-1-3.65-2.75-9.24-8.8a32.46,32.46,0,0,0-4.33-4.3c-2.3-1.55-3.64-1.56-8.35-4a14.19,14.19,0,0,1-3.45-2.17c-1.68-1.57-2.14-3.1-3.11-5.2-2.11-4.58-2.92-3.92-4.25-7.2-1.24-3.08-1.33-5.64-1.45-9.59-.14-4.38-.21-6.57.62-8.31.57-1.2,1.6-2.71,1.44-4.86a6.94,6.94,0,0,0-.6-2.29c-1.51-4,3.7-12.68,10.76-16.76,5.11-2.94,8-4.52,8-4.52a23.71,23.71,0,0,0,2.47-1.5c1.72-1.19,2.4-2,3.2-2.58,2-1.52,4.5-1.45,6.34-1.49,6.62-.17,9.33-1.87,13.65-2,8-.23,14,7.13,14.36,7.52a30.07,30.07,0,0,0,6,5.47,49.33,49.33,0,0,0,4.82,2.54,58.57,58.57,0,0,1,8.34,5.16c3.37,2.69,5,5.53,7.25,9.41C343.58,414.86,345.88,418.44,344.61,422.06Z" transform="translate(-248.5 -371.5)" fill="#f5ab49"/><path d="M297.5,452.22" transform="translate(-248.5 -371.5)" fill="#f7bca4"/><path d="M335.55,421.26c-1.18,5.64-3.57,14.83-3.86,15.4a83,83,0,0,1-9.13,12.2,61.7,61.7,0,0,1-8.18,3.84c-6.86,2.9-15.77,6.32-17.55,6.32-2.11,0-10.44-3.85-17.77-7.6-6.05-3.1-11.42-6.14-12-6.87-1.15-1.42-2.78-4.89-4.37-8.95-2.66-6.78-5.2-15.2-5.2-18.36,0-3.43,16-33.89,19.22-35.91,1-.61,9.6-2.65,12.71-3,9.27-1,20.29-.77,23.33.65,1.41.66,15.78,13.39,16.41,14.36.91,1.38,5.47,15.29,6.07,17.82A35.13,35.13,0,0,1,335.55,421.26Z" transform="translate(-248.5 -371.5)" fill="#d7432b"/><path d="M263.42,412.26c1.49-4.66,4.35-12.21,4.64-12.67a71.08,71.08,0,0,1,9-9.52,56.46,56.46,0,0,1,7.46-2.53c6.23-1.86,14.31-4,15.86-3.83,1.84.18,8.8,4.14,14.89,7.94,5,3.13,9.47,6.16,9.93,6.83a34.48,34.48,0,0,1,3.08,7.93c1.76,5.95,3.28,13.27,3,15.94-.28,2.9-16.82,27.23-19.76,28.66-.91.43-8.61,1.41-11.36,1.42-8.18,0-17.79-1.08-20.32-2.55-1.18-.68-12.67-12.65-13.15-13.52-.67-1.24-3.51-13.38-3.83-15.56A28.85,28.85,0,0,1,263.42,412.26Z" transform="translate(-248.5 -371.5)" fill="#fbf2bb"/><path d="M294.05,452" transform="translate(-248.5 -371.5)" fill="#f7bca4"/><circle cx="42.54" cy="74.94" r="6.07" fill="#d7595e" stroke="#1d1d1b" stroke-miterlimit="10"/><circle cx="42.32" cy="74.39" r="5.19" fill="#dc6761"/><ellipse cx="292.09" cy="443.48" rx="0.25" ry="0.82" transform="matrix(0.52, -0.85, 0.85, 0.52, -487.16, 89.11)" fill="#f7bca4"/><ellipse cx="290.85" cy="449.97" rx="0.87" ry="0.54" transform="translate(-411.48 -206.31) rotate(-25.01)" fill="#f7bca4"/><ellipse cx="294.61" cy="446.89" rx="0.5" ry="0.74" transform="translate(-439.18 301.21) rotate(-81.56)" fill="#f7bca4"/><ellipse cx="288.25" cy="447.71" rx="0.74" ry="0.5" transform="translate(-334.19 -302.87) rotate(-11.83)" fill="#f7bca4"/><ellipse cx="288.08" cy="444.02" rx="0.99" ry="0.3" transform="translate(-398.34 -224.74) rotate(-22.86)" fill="#f7bca4"/><path d="M303.62,401.07" transform="translate(-248.5 -371.5)" fill="#f7bca4"/><circle cx="52.11" cy="24.06" r="6.07" fill="#d7595e" stroke="#1d1d1b" stroke-miterlimit="10"/><circle cx="51.89" cy="23.51" r="5.19" fill="#dc6761"/><ellipse cx="301.66" cy="392.6" rx="0.25" ry="0.82" transform="translate(-439.22 72.99) rotate(-58.48)" fill="#f7bca4"/><ellipse cx="300.42" cy="399.09" rx="0.87" ry="0.54" transform="translate(-389.07 -207.04) rotate(-25.01)" fill="#f7bca4"/><ellipse cx="304.18" cy="396" rx="0.5" ry="0.74" transform="translate(-380.68 267.26) rotate(-81.56)" fill="#f7bca4"/><ellipse cx="297.82" cy="396.83" rx="0.74" ry="0.5" transform="translate(-323.55 -301.99) rotate(-11.83)" fill="#f7bca4"/><ellipse cx="297.65" cy="393.14" rx="0.99" ry="0.3" transform="translate(-377.83 -225.02) rotate(-22.86)" fill="#f7bca4"/><circle cx="36.08" cy="54.69" r="6.07" fill="#d7595e" stroke="#1d1d1b" stroke-miterlimit="10"/><circle cx="35.86" cy="54.14" r="5.19" fill="#dc6761"/><ellipse cx="285.63" cy="423.23" rx="0.25" ry="0.82" transform="translate(-472.98 73.94) rotate(-58.48)" fill="#f7bca4"/><ellipse cx="284.39" cy="429.72" rx="0.87" ry="0.54" transform="translate(-403.53 -210.94) rotate(-25.01)" fill="#f7bca4"/><ellipse cx="281.79" cy="427.46" rx="0.74" ry="0.5" transform="translate(-330.17 -304.63) rotate(-11.83)" fill="#f7bca4"/><ellipse cx="281.62" cy="423.77" rx="0.99" ry="0.3" transform="translate(-390.99 -228.84) rotate(-22.86)" fill="#f7bca4"/><circle cx="67.78" cy="37.27" r="6.07" fill="#d7595e" stroke="#1d1d1b" stroke-miterlimit="10"/><circle cx="67.56" cy="36.73" r="5.19" fill="#dc6761"/><ellipse cx="317.33" cy="405.81" rx="0.25" ry="0.82" transform="translate(-443.01 92.65) rotate(-58.48)" fill="#f7bca4"/><ellipse cx="316.09" cy="412.3" rx="0.87" ry="0.54" transform="translate(-393.19 -199.17) rotate(-25.01)" fill="#f7bca4"/><ellipse cx="313.48" cy="410.04" rx="0.74" ry="0.5" transform="translate(-325.93 -298.5) rotate(-11.83)" fill="#f7bca4"/><ellipse cx="313.31" cy="406.35" rx="0.99" ry="0.3" transform="translate(-381.73 -217.9) rotate(-22.86)" fill="#f7bca4"/><circle cx="60.75" cy="68.88" r="6.07" fill="#d7595e" stroke="#1d1d1b" stroke-miterlimit="10"/><circle cx="61.32" cy="68.72" r="5.19" fill="#dc6761"/><ellipse cx="312.09" cy="441.73" rx="0.82" ry="0.25" transform="translate(-476.81 47.84) rotate(-52.39)" fill="#f7bca4"/><ellipse cx="305.76" cy="439.82" rx="0.54" ry="0.87" transform="translate(-374.6 -248.59) rotate(-18.92)" fill="#f7bca4"/><ellipse cx="308.43" cy="443.88" rx="0.74" ry="0.5" transform="translate(-447.14 259.55) rotate(-75.47)" fill="#f7bca4"/><ellipse cx="308.29" cy="437.46" rx="0.5" ry="0.74" transform="translate(-290.71 -338.47) rotate(-5.74)" fill="#f7bca4"/><ellipse cx="311.98" cy="437.69" rx="0.3" ry="0.99" transform="translate(-361.48 -262.92) rotate(-16.76)" fill="#f7bca4"/><circle cx="28.94" cy="35.24" r="6.07" fill="#d7595e" stroke="#1d1d1b" stroke-miterlimit="10"/><circle cx="29.51" cy="35.08" r="5.19" fill="#dc6761"/><ellipse cx="280.28" cy="408.09" rx="0.82" ry="0.25" transform="translate(-462.55 9.54) rotate(-52.39)" fill="#f7bca4"/><ellipse cx="273.95" cy="406.18" rx="0.54" ry="0.87" transform="translate(-365.41 -260.72) rotate(-18.92)" fill="#f7bca4"/><ellipse cx="276.62" cy="410.24" rx="0.74" ry="0.5" transform="translate(-438.4 203.57) rotate(-75.47)" fill="#f7bca4"/><ellipse cx="276.48" cy="403.82" rx="0.5" ry="0.74" transform="translate(-287.51 -341.82) rotate(-5.74)" fill="#f7bca4"/><ellipse cx="280.17" cy="404.05" rx="0.3" ry="0.99" transform="translate(-353.13 -273.53) rotate(-16.76)" fill="#f7bca4"/><circle cx="56.68" cy="53.07" r="6.07" fill="#d7595e" stroke="#1d1d1b" stroke-miterlimit="10"/><circle cx="57.25" cy="52.92" r="5.19" fill="#dc6761"/><ellipse cx="308.02" cy="425.93" rx="0.82" ry="0.25" transform="translate(-465.88 38.46) rotate(-52.39)" fill="#f7bca4"/><ellipse cx="301.69" cy="424.01" rx="0.54" ry="0.87" transform="translate(-369.69 -250.76) rotate(-18.92)" fill="#f7bca4"/><ellipse cx="304.36" cy="428.07" rx="0.74" ry="0.5" transform="translate(-434.89 243.78) rotate(-75.47)" fill="#f7bca4"/><ellipse cx="304.21" cy="421.66" rx="0.5" ry="0.74" transform="translate(-289.15 -338.95) rotate(-5.74)" fill="#f7bca4"/><ellipse cx="307.91" cy="421.88" rx="0.3" ry="0.99" transform="translate(-357.09 -264.77) rotate(-16.76)" fill="#f7bca4"/><circle cx="47.51" cy="37.27" r="6.07" fill="#d7595e" stroke="#1d1d1b" stroke-miterlimit="10"/><circle cx="48.08" cy="37.12" r="5.19" fill="#dc6761"/><ellipse cx="298.85" cy="410.13" rx="0.82" ry="0.25" transform="translate(-456.93 25.04) rotate(-52.39)" fill="#f7bca4"/><ellipse cx="292.52" cy="408.21" rx="0.54" ry="0.87" transform="translate(-365.06 -254.59) rotate(-18.92)" fill="#f7bca4"/><ellipse cx="295.19" cy="412.27" rx="0.74" ry="0.5" transform="translate(-426.46 223.07) rotate(-75.47)" fill="#f7bca4"/><ellipse cx="295.05" cy="405.86" rx="0.5" ry="0.74" transform="translate(-287.62 -339.95) rotate(-5.74)" fill="#f7bca4"/><ellipse cx="298.74" cy="406.08" rx="0.3" ry="0.99" transform="translate(-352.93 -268.08) rotate(-16.76)" fill="#f7bca4"/><circle cx="24.33" cy="64.91" r="6.07" fill="#d7595e" stroke="#1d1d1b" stroke-miterlimit="10"/><circle cx="24.89" cy="64.75" r="5.19" fill="#dc6761"/><ellipse cx="275.66" cy="437.76" rx="0.82" ry="0.25" transform="translate(-487.86 17.44) rotate(-52.39)" fill="#f7bca4"/><ellipse cx="269.34" cy="435.85" rx="0.54" ry="0.87" transform="translate(-375.28 -260.61) rotate(-18.92)" fill="#f7bca4"/><ellipse cx="272.01" cy="439.91" rx="0.74" ry="0.5" transform="translate(-470.58 221.32) rotate(-75.47)" fill="#f7bca4"/><ellipse cx="271.86" cy="433.49" rx="0.5" ry="0.74" transform="translate(-290.5 -342.13) rotate(-5.74)" fill="#f7bca4"/><ellipse cx="275.55" cy="433.72" rx="0.3" ry="0.99" transform="translate(-361.88 -273.6) rotate(-16.76)" fill="#f7bca4"/><circle cx="16.84" cy="48.04" r="6.07" fill="#d7595e" stroke="#1d1d1b" stroke-miterlimit="10"/><circle cx="17.41" cy="47.89" r="5.19" fill="#dc6761"/><ellipse cx="268.17" cy="420.9" rx="0.82" ry="0.25" transform="translate(-477.42 4.94) rotate(-52.39)" fill="#f7bca4"/><ellipse cx="261.85" cy="418.98" rx="0.54" ry="0.87" transform="translate(-370.21 -263.95) rotate(-18.92)" fill="#f7bca4"/><ellipse cx="264.52" cy="423.04" rx="0.74" ry="0.5" transform="translate(-459.86 201.44) rotate(-75.47)" fill="#f7bca4"/><ellipse cx="264.37" cy="416.63" rx="0.5" ry="0.74" transform="translate(-288.85 -342.96) rotate(-5.74)" fill="#f7bca4"/><ellipse cx="268.06" cy="416.85" rx="0.3" ry="0.99" transform="translate(-357.34 -276.47) rotate(-16.76)" fill="#f7bca4"/><circle cx="73.85" cy="54.11" r="6.07" fill="#d7595e" stroke="#1d1d1b" stroke-miterlimit="10"/><circle cx="73.94" cy="54.69" r="5.19" fill="#dc6761"/><ellipse cx="320.71" cy="428.29" rx="0.25" ry="0.82" transform="translate(-459.26 -5.05) rotate(-46.54)" fill="#f7bca4"/><ellipse cx="323.26" cy="422.2" rx="0.87" ry="0.54" transform="translate(-335.61 -287.45) rotate(-13.07)" fill="#f7bca4"/><ellipse cx="318.95" cy="424.44" rx="0.5" ry="0.74" transform="translate(-438.5 204.09) rotate(-69.62)" fill="#f7bca4"/><ellipse cx="325.34" cy="424.94" rx="0.5" ry="0.74" transform="translate(-348.72 377.98) rotate(-89.89)" fill="#f7bca4"/><ellipse cx="324.74" cy="428.59" rx="0.99" ry="0.3" transform="translate(-323.77 -302.27) rotate(-10.91)" fill="#f7bca4"/></svg>