<svg id="Слой_1" xmlns="http://www.w3.org/2000/svg" viewBox="0 0 99 109.7"><title>circleTomato</title><circle cx="49.5" cy="60.2" r="49" fill="#c92718" stroke="#1d1d1b" stroke-miterlimit="10"/><ellipse cx="45.68" cy="60.5" rx="41.16" ry="47.3" fill="#e42c18"/><ellipse cx="268.51" cy="407.01" rx="8.13" ry="4.81" transform="translate(-461.6 117.09) rotate(-65.58)" fill="#fce2dd"/><path d="M271.34,376.87a97.77,97.77,0,0,1,19.81,2.26,95.69,95.69,0,0,1,12.78,3.77l1.36-5.48a76.36,76.36,0,0,0-22.3-2.06A79.67,79.67,0,0,0,271.34,376.87Z" transform="translate(-248.5 -366.15)" fill="#44ac41"/><path d="M281.73,389.88a52.83,52.83,0,0,1,13.89-4.49,50.55,50.55,0,0,1,9.67-.73l-.77-5.59A41.58,41.58,0,0,0,289,384.58,48.82,48.82,0,0,0,281.73,389.88Z" transform="translate(-248.5 -366.15)" fill="#44ac41"/><path d="M320.72,396.1a55.31,55.31,0,0,0-9.47-8,54.22,54.22,0,0,0-7.21-4.05l2-3.25A43.67,43.67,0,0,1,316.51,390,47.73,47.73,0,0,1,320.72,396.1Z" transform="translate(-248.5 -366.15)" fill="#44ac41"/><path d="M324.66,382.13a31.9,31.9,0,0,0-12.35-.26,29.4,29.4,0,0,0-7.67,2.53l-1.56-6.61a25.67,25.67,0,0,1,13.95.85A40.52,40.52,0,0,1,324.66,382.13Z" transform="translate(-248.5 -366.15)" fill="#44ac41"/><path d="M313.4,372.89a9.73,9.73,0,0,0-5,4,6.85,6.85,0,0,0-.81,3.76L301.31,378c.69-1.59,2.36-3.23,6.15-4.25A32.26,32.26,0,0,1,313.4,372.89Z" transform="translate(-248.5 -366.15)" fill="#44ac41"/><path d="M301.58,380.8a18.89,18.89,0,0,0-.44-8.12,23.22,23.22,0,0,0-2.88-6.34l9.63-.19a26.48,26.48,0,0,0-2.44,6.33,22.79,22.79,0,0,0-.55,7.2Z" transform="translate(-248.5 -366.15)" fill="#009d47"/></svg>